<mxfile host="app.diagrams.net" modified="2022-07-19T08:02:37.523Z" agent="5.0 (Windows NT 10.0; Win64; x64) AppleWebKit/537.36 (KHTML, like Gecko) Chrome/103.0.0.0 Safari/537.36" etag="8kVpSpS3FQ2DF4osHIL5" version="20.1.1" type="github">
  <diagram id="nTEzo6TpZnL4WJK5b_rm" name="Page-1">
    <mxGraphModel dx="1422" dy="794" grid="1" gridSize="10" guides="1" tooltips="1" connect="1" arrows="1" fold="1" page="1" pageScale="1" pageWidth="827" pageHeight="1169" math="0" shadow="0">
      <root>
        <mxCell id="0" />
        <mxCell id="1" parent="0" />
        <mxCell id="QkMExCi1QEPRbKp7ple_-2" value="拿到callmethod&lt;br&gt;sendmethod&lt;br&gt;eventmethod" style="rounded=0;whiteSpace=wrap;html=1;" vertex="1" parent="1">
          <mxGeometry x="390" y="250" width="120" height="60" as="geometry" />
        </mxCell>
        <mxCell id="QkMExCi1QEPRbKp7ple_-4" style="edgeStyle=orthogonalEdgeStyle;rounded=0;orthogonalLoop=1;jettySize=auto;html=1;entryX=0.5;entryY=0;entryDx=0;entryDy=0;" edge="1" parent="1" source="QkMExCi1QEPRbKp7ple_-3" target="QkMExCi1QEPRbKp7ple_-2">
          <mxGeometry relative="1" as="geometry" />
        </mxCell>
        <mxCell id="QkMExCi1QEPRbKp7ple_-3" value="进入程序" style="shape=parallelogram;perimeter=parallelogramPerimeter;whiteSpace=wrap;html=1;fixedSize=1;" vertex="1" parent="1">
          <mxGeometry x="390" y="110" width="120" height="60" as="geometry" />
        </mxCell>
      </root>
    </mxGraphModel>
  </diagram>
</mxfile>
